<mxfile host="app.diagrams.net" agent="Mozilla/5.0 (Windows NT 10.0; Win64; x64) AppleWebKit/537.36 (KHTML, like Gecko) Chrome/134.0.0.0 Safari/537.36" version="26.1.0">
  <diagram id="C5RBs43oDa-KdzZeNtuy" name="Page-1">
    <mxGraphModel dx="1835" dy="2219" grid="1" gridSize="10" guides="1" tooltips="1" connect="1" arrows="1" fold="1" page="1" pageScale="1" pageWidth="827" pageHeight="1169" math="0" shadow="0">
      <root>
        <mxCell id="WIyWlLk6GJQsqaUBKTNV-0" />
        <mxCell id="WIyWlLk6GJQsqaUBKTNV-1" parent="WIyWlLk6GJQsqaUBKTNV-0" />
        <mxCell id="WIyWlLk6GJQsqaUBKTNV-2" value="" style="rounded=0;html=1;jettySize=auto;orthogonalLoop=1;fontSize=11;endArrow=block;endFill=0;endSize=8;strokeWidth=1;shadow=0;labelBackgroundColor=none;edgeStyle=orthogonalEdgeStyle;entryX=0.5;entryY=0;entryDx=0;entryDy=0;" parent="WIyWlLk6GJQsqaUBKTNV-1" source="WIyWlLk6GJQsqaUBKTNV-3" target="C9Z1ZDKZKIPc8T6fknlQ-0" edge="1">
          <mxGeometry relative="1" as="geometry">
            <mxPoint x="220" y="-280" as="targetPoint" />
          </mxGeometry>
        </mxCell>
        <mxCell id="WIyWlLk6GJQsqaUBKTNV-3" value="Crear una base de datos" style="rounded=1;whiteSpace=wrap;html=1;fontSize=12;glass=0;strokeWidth=1;shadow=0;" parent="WIyWlLk6GJQsqaUBKTNV-1" vertex="1">
          <mxGeometry x="160" y="-350" width="120" height="40" as="geometry" />
        </mxCell>
        <mxCell id="WIyWlLk6GJQsqaUBKTNV-9" value="" style="edgeStyle=orthogonalEdgeStyle;rounded=0;html=1;jettySize=auto;orthogonalLoop=1;fontSize=11;endArrow=block;endFill=0;endSize=8;strokeWidth=1;shadow=0;labelBackgroundColor=none;exitX=0.5;exitY=1;exitDx=0;exitDy=0;entryX=0.5;entryY=0;entryDx=0;entryDy=0;" parent="WIyWlLk6GJQsqaUBKTNV-1" source="C9Z1ZDKZKIPc8T6fknlQ-44" target="C9Z1ZDKZKIPc8T6fknlQ-64" edge="1">
          <mxGeometry y="10" relative="1" as="geometry">
            <mxPoint as="offset" />
            <mxPoint x="480.0000000000002" y="170" as="sourcePoint" />
            <mxPoint x="530" y="130" as="targetPoint" />
          </mxGeometry>
        </mxCell>
        <mxCell id="C9Z1ZDKZKIPc8T6fknlQ-0" value="Crear una tabla dentro de la base de datos" style="rounded=1;whiteSpace=wrap;html=1;fontSize=12;glass=0;strokeWidth=1;shadow=0;" vertex="1" parent="WIyWlLk6GJQsqaUBKTNV-1">
          <mxGeometry x="160" y="-270" width="120" height="40" as="geometry" />
        </mxCell>
        <mxCell id="C9Z1ZDKZKIPc8T6fknlQ-5" value="" style="edgeStyle=orthogonalEdgeStyle;rounded=0;html=1;jettySize=auto;orthogonalLoop=1;fontSize=11;endArrow=block;endFill=0;endSize=8;strokeWidth=1;shadow=0;labelBackgroundColor=none;exitX=0.5;exitY=1;exitDx=0;exitDy=0;" edge="1" parent="WIyWlLk6GJQsqaUBKTNV-1" source="C9Z1ZDKZKIPc8T6fknlQ-64" target="C9Z1ZDKZKIPc8T6fknlQ-7">
          <mxGeometry x="-1" y="72" relative="1" as="geometry">
            <mxPoint x="-40" y="12" as="offset" />
            <mxPoint x="590" y="150" as="sourcePoint" />
          </mxGeometry>
        </mxCell>
        <mxCell id="C9Z1ZDKZKIPc8T6fknlQ-7" value="ALTER TABLE&lt;div&gt;nombre_tabla&lt;/div&gt;" style="rounded=1;whiteSpace=wrap;html=1;fontSize=12;glass=0;strokeWidth=1;shadow=0;" vertex="1" parent="WIyWlLk6GJQsqaUBKTNV-1">
          <mxGeometry x="330" y="345" width="120" height="40" as="geometry" />
        </mxCell>
        <mxCell id="C9Z1ZDKZKIPc8T6fknlQ-8" value="ADD nuevo_dato&lt;div&gt;tipo_de_dato;&lt;/div&gt;" style="rounded=1;whiteSpace=wrap;html=1;fontSize=12;glass=0;strokeWidth=1;shadow=0;" vertex="1" parent="WIyWlLk6GJQsqaUBKTNV-1">
          <mxGeometry x="330" y="425" width="120" height="40" as="geometry" />
        </mxCell>
        <mxCell id="C9Z1ZDKZKIPc8T6fknlQ-9" value="" style="edgeStyle=orthogonalEdgeStyle;rounded=0;html=1;jettySize=auto;orthogonalLoop=1;fontSize=11;endArrow=block;endFill=0;endSize=8;strokeWidth=1;shadow=0;labelBackgroundColor=none;entryX=0.5;entryY=0;entryDx=0;entryDy=0;exitX=0.5;exitY=1;exitDx=0;exitDy=0;" edge="1" parent="WIyWlLk6GJQsqaUBKTNV-1" source="C9Z1ZDKZKIPc8T6fknlQ-7" target="C9Z1ZDKZKIPc8T6fknlQ-8">
          <mxGeometry y="10" relative="1" as="geometry">
            <mxPoint as="offset" />
            <mxPoint x="820" y="225" as="sourcePoint" />
            <mxPoint x="710" y="235" as="targetPoint" />
          </mxGeometry>
        </mxCell>
        <mxCell id="C9Z1ZDKZKIPc8T6fknlQ-11" value="Si" style="edgeStyle=orthogonalEdgeStyle;rounded=0;html=1;jettySize=auto;orthogonalLoop=1;fontSize=11;endArrow=block;endFill=0;endSize=8;strokeWidth=1;shadow=0;labelBackgroundColor=none;exitX=0.5;exitY=1;exitDx=0;exitDy=0;entryX=0.5;entryY=0;entryDx=0;entryDy=0;" edge="1" parent="WIyWlLk6GJQsqaUBKTNV-1" source="C9Z1ZDKZKIPc8T6fknlQ-43" target="C9Z1ZDKZKIPc8T6fknlQ-14">
          <mxGeometry y="10" relative="1" as="geometry">
            <mxPoint as="offset" />
            <mxPoint x="-20" y="280" as="targetPoint" />
          </mxGeometry>
        </mxCell>
        <mxCell id="C9Z1ZDKZKIPc8T6fknlQ-13" value="MODIFY nombre_tabla&amp;nbsp;&lt;div&gt;nuevo_tipo_de_dato;&lt;/div&gt;" style="rounded=1;whiteSpace=wrap;html=1;fontSize=12;glass=0;strokeWidth=1;shadow=0;" vertex="1" parent="WIyWlLk6GJQsqaUBKTNV-1">
          <mxGeometry x="-265" y="235" width="120" height="50" as="geometry" />
        </mxCell>
        <mxCell id="C9Z1ZDKZKIPc8T6fknlQ-14" value="ALTER TABLE nombre_tabla" style="rounded=1;whiteSpace=wrap;html=1;fontSize=12;glass=0;strokeWidth=1;shadow=0;" vertex="1" parent="WIyWlLk6GJQsqaUBKTNV-1">
          <mxGeometry x="-60" y="240" width="120" height="40" as="geometry" />
        </mxCell>
        <mxCell id="C9Z1ZDKZKIPc8T6fknlQ-15" value="" style="edgeStyle=orthogonalEdgeStyle;rounded=0;html=1;jettySize=auto;orthogonalLoop=1;fontSize=11;endArrow=block;endFill=0;endSize=8;strokeWidth=1;shadow=0;labelBackgroundColor=none;entryX=1;entryY=0.5;entryDx=0;entryDy=0;exitX=0;exitY=0.5;exitDx=0;exitDy=0;" edge="1" parent="WIyWlLk6GJQsqaUBKTNV-1" target="C9Z1ZDKZKIPc8T6fknlQ-13" source="C9Z1ZDKZKIPc8T6fknlQ-14">
          <mxGeometry y="10" relative="1" as="geometry">
            <mxPoint as="offset" />
            <mxPoint x="-200" y="350" as="sourcePoint" />
            <mxPoint x="-240" y="400" as="targetPoint" />
          </mxGeometry>
        </mxCell>
        <mxCell id="C9Z1ZDKZKIPc8T6fknlQ-18" value="Inicio" style="ellipse;whiteSpace=wrap;html=1;" vertex="1" parent="WIyWlLk6GJQsqaUBKTNV-1">
          <mxGeometry x="175" y="-450" width="90" height="50" as="geometry" />
        </mxCell>
        <mxCell id="C9Z1ZDKZKIPc8T6fknlQ-19" value="" style="rounded=0;html=1;jettySize=auto;orthogonalLoop=1;fontSize=11;endArrow=block;endFill=0;endSize=8;strokeWidth=1;shadow=0;labelBackgroundColor=none;edgeStyle=orthogonalEdgeStyle;entryX=0.5;entryY=0;entryDx=0;entryDy=0;exitX=0.5;exitY=1;exitDx=0;exitDy=0;" edge="1" parent="WIyWlLk6GJQsqaUBKTNV-1" source="C9Z1ZDKZKIPc8T6fknlQ-18" target="WIyWlLk6GJQsqaUBKTNV-3">
          <mxGeometry relative="1" as="geometry">
            <mxPoint x="230" y="-300" as="sourcePoint" />
            <mxPoint x="230" y="-260" as="targetPoint" />
          </mxGeometry>
        </mxCell>
        <mxCell id="C9Z1ZDKZKIPc8T6fknlQ-24" value="Modificado correctamente?" style="rhombus;whiteSpace=wrap;html=1;shadow=0;fontFamily=Helvetica;fontSize=12;align=center;strokeWidth=1;spacing=6;spacingTop=-4;" vertex="1" parent="WIyWlLk6GJQsqaUBKTNV-1">
          <mxGeometry x="-260" y="360" width="110" height="90" as="geometry" />
        </mxCell>
        <mxCell id="C9Z1ZDKZKIPc8T6fknlQ-25" value="" style="edgeStyle=orthogonalEdgeStyle;rounded=0;html=1;jettySize=auto;orthogonalLoop=1;fontSize=11;endArrow=block;endFill=0;endSize=8;strokeWidth=1;shadow=0;labelBackgroundColor=none;entryX=0.5;entryY=0;entryDx=0;entryDy=0;exitX=0.5;exitY=1;exitDx=0;exitDy=0;" edge="1" parent="WIyWlLk6GJQsqaUBKTNV-1" source="C9Z1ZDKZKIPc8T6fknlQ-13" target="C9Z1ZDKZKIPc8T6fknlQ-24">
          <mxGeometry y="10" relative="1" as="geometry">
            <mxPoint as="offset" />
            <mxPoint x="390" y="500" as="sourcePoint" />
            <mxPoint x="390" y="540" as="targetPoint" />
          </mxGeometry>
        </mxCell>
        <mxCell id="C9Z1ZDKZKIPc8T6fknlQ-26" value="Si" style="rounded=0;html=1;jettySize=auto;orthogonalLoop=1;fontSize=11;endArrow=block;endFill=0;endSize=8;strokeWidth=1;shadow=0;labelBackgroundColor=none;exitX=1;exitY=0.5;exitDx=0;exitDy=0;entryX=0;entryY=0.5;entryDx=0;entryDy=0;" edge="1" parent="WIyWlLk6GJQsqaUBKTNV-1" source="C9Z1ZDKZKIPc8T6fknlQ-24" target="C9Z1ZDKZKIPc8T6fknlQ-27">
          <mxGeometry y="10" relative="1" as="geometry">
            <mxPoint as="offset" />
            <mxPoint x="225" y="720" as="sourcePoint" />
            <mxPoint x="-200" y="470" as="targetPoint" />
          </mxGeometry>
        </mxCell>
        <mxCell id="C9Z1ZDKZKIPc8T6fknlQ-27" value="Dato modificado&lt;div&gt;correctamente&lt;/div&gt;" style="rounded=1;whiteSpace=wrap;html=1;fontSize=12;glass=0;strokeWidth=1;shadow=0;" vertex="1" parent="WIyWlLk6GJQsqaUBKTNV-1">
          <mxGeometry x="-60" y="385" width="120" height="40" as="geometry" />
        </mxCell>
        <mxCell id="C9Z1ZDKZKIPc8T6fknlQ-28" value="Fin" style="ellipse;whiteSpace=wrap;html=1;" vertex="1" parent="WIyWlLk6GJQsqaUBKTNV-1">
          <mxGeometry x="110" y="440" width="90" height="50" as="geometry" />
        </mxCell>
        <mxCell id="C9Z1ZDKZKIPc8T6fknlQ-33" value="Mostrar columnas existentes" style="rounded=1;whiteSpace=wrap;html=1;fontSize=12;glass=0;strokeWidth=1;shadow=0;" vertex="1" parent="WIyWlLk6GJQsqaUBKTNV-1">
          <mxGeometry x="160" y="-60" width="120" height="40" as="geometry" />
        </mxCell>
        <mxCell id="C9Z1ZDKZKIPc8T6fknlQ-34" value="" style="rounded=0;html=1;jettySize=auto;orthogonalLoop=1;fontSize=11;endArrow=block;endFill=0;endSize=8;strokeWidth=1;shadow=0;labelBackgroundColor=none;edgeStyle=orthogonalEdgeStyle;entryX=0.5;entryY=0;entryDx=0;entryDy=0;exitX=0.5;exitY=1;exitDx=0;exitDy=0;" edge="1" parent="WIyWlLk6GJQsqaUBKTNV-1" source="C9Z1ZDKZKIPc8T6fknlQ-0" target="C9Z1ZDKZKIPc8T6fknlQ-52">
          <mxGeometry relative="1" as="geometry">
            <mxPoint x="230" y="-170" as="sourcePoint" />
            <mxPoint x="230" y="-130" as="targetPoint" />
          </mxGeometry>
        </mxCell>
        <mxCell id="C9Z1ZDKZKIPc8T6fknlQ-35" value="Tipo de modificación" style="rounded=1;whiteSpace=wrap;html=1;fontSize=12;glass=0;strokeWidth=1;shadow=0;" vertex="1" parent="WIyWlLk6GJQsqaUBKTNV-1">
          <mxGeometry x="160" y="30" width="120" height="40" as="geometry" />
        </mxCell>
        <mxCell id="C9Z1ZDKZKIPc8T6fknlQ-37" value="" style="rounded=0;html=1;jettySize=auto;orthogonalLoop=1;fontSize=11;endArrow=block;endFill=0;endSize=8;strokeWidth=1;shadow=0;labelBackgroundColor=none;edgeStyle=orthogonalEdgeStyle;entryX=0.5;entryY=0;entryDx=0;entryDy=0;exitX=0.5;exitY=1;exitDx=0;exitDy=0;" edge="1" parent="WIyWlLk6GJQsqaUBKTNV-1" source="C9Z1ZDKZKIPc8T6fknlQ-33" target="C9Z1ZDKZKIPc8T6fknlQ-35">
          <mxGeometry relative="1" as="geometry">
            <mxPoint x="230" y="-90" as="sourcePoint" />
            <mxPoint x="230" y="-50" as="targetPoint" />
          </mxGeometry>
        </mxCell>
        <mxCell id="C9Z1ZDKZKIPc8T6fknlQ-42" value="Renombrar&amp;nbsp;&lt;div&gt;tabla?&lt;/div&gt;" style="rhombus;whiteSpace=wrap;html=1;shadow=0;fontFamily=Helvetica;fontSize=12;align=center;strokeWidth=1;spacing=6;spacingTop=-4;" vertex="1" parent="WIyWlLk6GJQsqaUBKTNV-1">
          <mxGeometry x="-80" y="-50" width="100" height="80" as="geometry" />
        </mxCell>
        <mxCell id="C9Z1ZDKZKIPc8T6fknlQ-43" value="Modificar columna?" style="rhombus;whiteSpace=wrap;html=1;shadow=0;fontFamily=Helvetica;fontSize=12;align=center;strokeWidth=1;spacing=6;spacingTop=-4;" vertex="1" parent="WIyWlLk6GJQsqaUBKTNV-1">
          <mxGeometry x="50" y="110" width="100" height="80" as="geometry" />
        </mxCell>
        <mxCell id="C9Z1ZDKZKIPc8T6fknlQ-44" value="Agregar columna?" style="rhombus;whiteSpace=wrap;html=1;shadow=0;fontFamily=Helvetica;fontSize=12;align=center;strokeWidth=1;spacing=6;spacingTop=-4;" vertex="1" parent="WIyWlLk6GJQsqaUBKTNV-1">
          <mxGeometry x="340" y="90" width="100" height="80" as="geometry" />
        </mxCell>
        <mxCell id="C9Z1ZDKZKIPc8T6fknlQ-45" value="Eliminar columna?&amp;nbsp;" style="rhombus;whiteSpace=wrap;html=1;shadow=0;fontFamily=Helvetica;fontSize=12;align=center;strokeWidth=1;spacing=6;spacingTop=-4;" vertex="1" parent="WIyWlLk6GJQsqaUBKTNV-1">
          <mxGeometry x="470" y="-50" width="100" height="80" as="geometry" />
        </mxCell>
        <mxCell id="C9Z1ZDKZKIPc8T6fknlQ-47" value="" style="edgeStyle=orthogonalEdgeStyle;rounded=0;html=1;jettySize=auto;orthogonalLoop=1;fontSize=11;endArrow=block;endFill=0;endSize=8;strokeWidth=1;shadow=0;labelBackgroundColor=none;exitX=0;exitY=0.5;exitDx=0;exitDy=0;entryX=0.5;entryY=1;entryDx=0;entryDy=0;" edge="1" parent="WIyWlLk6GJQsqaUBKTNV-1" source="C9Z1ZDKZKIPc8T6fknlQ-35" target="C9Z1ZDKZKIPc8T6fknlQ-42">
          <mxGeometry y="10" relative="1" as="geometry">
            <mxPoint as="offset" />
            <mxPoint x="90" y="220" as="sourcePoint" />
            <mxPoint x="-110" y="290" as="targetPoint" />
          </mxGeometry>
        </mxCell>
        <mxCell id="C9Z1ZDKZKIPc8T6fknlQ-48" value="" style="edgeStyle=orthogonalEdgeStyle;rounded=0;html=1;jettySize=auto;orthogonalLoop=1;fontSize=11;endArrow=block;endFill=0;endSize=8;strokeWidth=1;shadow=0;labelBackgroundColor=none;exitX=0.5;exitY=1;exitDx=0;exitDy=0;entryX=0.5;entryY=0;entryDx=0;entryDy=0;" edge="1" parent="WIyWlLk6GJQsqaUBKTNV-1" source="C9Z1ZDKZKIPc8T6fknlQ-35" target="C9Z1ZDKZKIPc8T6fknlQ-43">
          <mxGeometry y="10" relative="1" as="geometry">
            <mxPoint as="offset" />
            <mxPoint x="100" y="230" as="sourcePoint" />
            <mxPoint x="-100" y="300" as="targetPoint" />
          </mxGeometry>
        </mxCell>
        <mxCell id="C9Z1ZDKZKIPc8T6fknlQ-49" value="" style="edgeStyle=orthogonalEdgeStyle;rounded=0;html=1;jettySize=auto;orthogonalLoop=1;fontSize=11;endArrow=block;endFill=0;endSize=8;strokeWidth=1;shadow=0;labelBackgroundColor=none;exitX=0.75;exitY=1;exitDx=0;exitDy=0;entryX=0;entryY=0.5;entryDx=0;entryDy=0;" edge="1" parent="WIyWlLk6GJQsqaUBKTNV-1" source="C9Z1ZDKZKIPc8T6fknlQ-35" target="C9Z1ZDKZKIPc8T6fknlQ-44">
          <mxGeometry y="10" relative="1" as="geometry">
            <mxPoint as="offset" />
            <mxPoint x="110" y="240" as="sourcePoint" />
            <mxPoint x="-90" y="310" as="targetPoint" />
          </mxGeometry>
        </mxCell>
        <mxCell id="C9Z1ZDKZKIPc8T6fknlQ-50" value="" style="edgeStyle=orthogonalEdgeStyle;rounded=0;html=1;jettySize=auto;orthogonalLoop=1;fontSize=11;endArrow=block;endFill=0;endSize=8;strokeWidth=1;shadow=0;labelBackgroundColor=none;exitX=1;exitY=0.5;exitDx=0;exitDy=0;entryX=0;entryY=0.5;entryDx=0;entryDy=0;" edge="1" parent="WIyWlLk6GJQsqaUBKTNV-1" source="C9Z1ZDKZKIPc8T6fknlQ-35" target="C9Z1ZDKZKIPc8T6fknlQ-45">
          <mxGeometry y="10" relative="1" as="geometry">
            <mxPoint as="offset" />
            <mxPoint x="120" y="250" as="sourcePoint" />
            <mxPoint x="-80" y="320" as="targetPoint" />
          </mxGeometry>
        </mxCell>
        <mxCell id="C9Z1ZDKZKIPc8T6fknlQ-52" value="La tabla&amp;nbsp;&lt;div&gt;existe?&lt;/div&gt;" style="rhombus;whiteSpace=wrap;html=1;shadow=0;fontFamily=Helvetica;fontSize=12;align=center;strokeWidth=1;spacing=6;spacingTop=-4;" vertex="1" parent="WIyWlLk6GJQsqaUBKTNV-1">
          <mxGeometry x="170" y="-190" width="100" height="80" as="geometry" />
        </mxCell>
        <mxCell id="C9Z1ZDKZKIPc8T6fknlQ-54" value="" style="rounded=0;html=1;jettySize=auto;orthogonalLoop=1;fontSize=11;endArrow=block;endFill=0;endSize=8;strokeWidth=1;shadow=0;labelBackgroundColor=none;edgeStyle=orthogonalEdgeStyle;entryX=0.5;entryY=0;entryDx=0;entryDy=0;exitX=0.5;exitY=1;exitDx=0;exitDy=0;" edge="1" parent="WIyWlLk6GJQsqaUBKTNV-1" source="C9Z1ZDKZKIPc8T6fknlQ-52" target="C9Z1ZDKZKIPc8T6fknlQ-33">
          <mxGeometry relative="1" as="geometry">
            <mxPoint x="230" y="-10" as="sourcePoint" />
            <mxPoint x="230" y="40" as="targetPoint" />
          </mxGeometry>
        </mxCell>
        <mxCell id="C9Z1ZDKZKIPc8T6fknlQ-55" value="Si" style="text;html=1;align=center;verticalAlign=middle;resizable=0;points=[];autosize=1;strokeColor=none;fillColor=none;fontSize=16;" vertex="1" parent="WIyWlLk6GJQsqaUBKTNV-1">
          <mxGeometry x="210" y="-110" width="40" height="30" as="geometry" />
        </mxCell>
        <mxCell id="C9Z1ZDKZKIPc8T6fknlQ-56" value="" style="rounded=0;html=1;jettySize=auto;orthogonalLoop=1;fontSize=11;endArrow=block;endFill=0;endSize=8;strokeWidth=1;shadow=0;labelBackgroundColor=none;edgeStyle=orthogonalEdgeStyle;entryX=1;entryY=0.5;entryDx=0;entryDy=0;exitX=1;exitY=0.5;exitDx=0;exitDy=0;" edge="1" parent="WIyWlLk6GJQsqaUBKTNV-1" source="C9Z1ZDKZKIPc8T6fknlQ-52" target="C9Z1ZDKZKIPc8T6fknlQ-0">
          <mxGeometry relative="1" as="geometry">
            <mxPoint x="230" y="-220" as="sourcePoint" />
            <mxPoint x="230" y="-180" as="targetPoint" />
            <Array as="points">
              <mxPoint x="340" y="-150" />
              <mxPoint x="340" y="-250" />
            </Array>
          </mxGeometry>
        </mxCell>
        <mxCell id="C9Z1ZDKZKIPc8T6fknlQ-57" value="No" style="text;html=1;align=center;verticalAlign=middle;resizable=0;points=[];autosize=1;strokeColor=none;fillColor=none;fontSize=16;" vertex="1" parent="WIyWlLk6GJQsqaUBKTNV-1">
          <mxGeometry x="264" y="-179" width="40" height="30" as="geometry" />
        </mxCell>
        <mxCell id="C9Z1ZDKZKIPc8T6fknlQ-58" style="edgeStyle=none;curved=1;rounded=0;orthogonalLoop=1;jettySize=auto;html=1;exitX=0.75;exitY=0;exitDx=0;exitDy=0;fontSize=12;startSize=8;endSize=8;" edge="1" parent="WIyWlLk6GJQsqaUBKTNV-1" source="C9Z1ZDKZKIPc8T6fknlQ-27" target="C9Z1ZDKZKIPc8T6fknlQ-27">
          <mxGeometry relative="1" as="geometry" />
        </mxCell>
        <mxCell id="C9Z1ZDKZKIPc8T6fknlQ-59" value="Si" style="edgeStyle=orthogonalEdgeStyle;rounded=0;html=1;jettySize=auto;orthogonalLoop=1;fontSize=11;endArrow=block;endFill=0;endSize=8;strokeWidth=1;shadow=0;labelBackgroundColor=none;exitX=0.5;exitY=1;exitDx=0;exitDy=0;entryX=0.5;entryY=0;entryDx=0;entryDy=0;" edge="1" parent="WIyWlLk6GJQsqaUBKTNV-1" target="C9Z1ZDKZKIPc8T6fknlQ-61">
          <mxGeometry y="10" relative="1" as="geometry">
            <mxPoint as="offset" />
            <mxPoint x="-80" y="-10" as="sourcePoint" />
            <mxPoint x="-215" y="30" as="targetPoint" />
          </mxGeometry>
        </mxCell>
        <mxCell id="C9Z1ZDKZKIPc8T6fknlQ-61" value="ALTER TABLE nombre_tabla&lt;div&gt;RENAME TO nuevo_nombre;&lt;/div&gt;" style="rounded=1;whiteSpace=wrap;html=1;fontSize=12;glass=0;strokeWidth=1;shadow=0;" vertex="1" parent="WIyWlLk6GJQsqaUBKTNV-1">
          <mxGeometry x="-270" y="40" width="130" height="70" as="geometry" />
        </mxCell>
        <mxCell id="C9Z1ZDKZKIPc8T6fknlQ-62" value="si" style="text;html=1;align=center;verticalAlign=middle;resizable=0;points=[];autosize=1;strokeColor=none;fillColor=none;fontSize=16;" vertex="1" parent="WIyWlLk6GJQsqaUBKTNV-1">
          <mxGeometry x="350" y="191" width="40" height="30" as="geometry" />
        </mxCell>
        <mxCell id="C9Z1ZDKZKIPc8T6fknlQ-64" value="La columna existe?" style="rhombus;whiteSpace=wrap;html=1;shadow=0;fontFamily=Helvetica;fontSize=12;align=center;strokeWidth=1;spacing=6;spacingTop=-4;" vertex="1" parent="WIyWlLk6GJQsqaUBKTNV-1">
          <mxGeometry x="340" y="215" width="100" height="80" as="geometry" />
        </mxCell>
        <mxCell id="C9Z1ZDKZKIPc8T6fknlQ-68" value="Si" style="text;html=1;align=center;verticalAlign=middle;resizable=0;points=[];autosize=1;strokeColor=none;fillColor=none;fontSize=16;" vertex="1" parent="WIyWlLk6GJQsqaUBKTNV-1">
          <mxGeometry x="430" y="230" width="40" height="30" as="geometry" />
        </mxCell>
        <mxCell id="C9Z1ZDKZKIPc8T6fknlQ-69" value="" style="edgeStyle=orthogonalEdgeStyle;rounded=0;html=1;jettySize=auto;orthogonalLoop=1;fontSize=11;endArrow=block;endFill=0;endSize=8;strokeWidth=1;shadow=0;labelBackgroundColor=none;exitX=1;exitY=0.5;exitDx=0;exitDy=0;entryX=0;entryY=0.5;entryDx=0;entryDy=0;" edge="1" parent="WIyWlLk6GJQsqaUBKTNV-1" source="C9Z1ZDKZKIPc8T6fknlQ-64" target="C9Z1ZDKZKIPc8T6fknlQ-70">
          <mxGeometry y="10" relative="1" as="geometry">
            <mxPoint as="offset" />
            <mxPoint x="450" y="140" as="sourcePoint" />
            <mxPoint x="760" y="130" as="targetPoint" />
          </mxGeometry>
        </mxCell>
        <mxCell id="C9Z1ZDKZKIPc8T6fknlQ-70" value="La columna ya existe" style="rounded=1;whiteSpace=wrap;html=1;fontSize=12;glass=0;strokeWidth=1;shadow=0;" vertex="1" parent="WIyWlLk6GJQsqaUBKTNV-1">
          <mxGeometry x="490" y="235" width="120" height="40" as="geometry" />
        </mxCell>
        <mxCell id="C9Z1ZDKZKIPc8T6fknlQ-72" value="No" style="text;html=1;align=center;verticalAlign=middle;resizable=0;points=[];autosize=1;strokeColor=none;fillColor=none;fontSize=16;" vertex="1" parent="WIyWlLk6GJQsqaUBKTNV-1">
          <mxGeometry x="360" y="285" width="40" height="30" as="geometry" />
        </mxCell>
        <mxCell id="C9Z1ZDKZKIPc8T6fknlQ-74" value="ALTER TABLE&lt;div&gt;nombre_tabla&lt;/div&gt;" style="rounded=1;whiteSpace=wrap;html=1;fontSize=12;glass=0;strokeWidth=1;shadow=0;" vertex="1" parent="WIyWlLk6GJQsqaUBKTNV-1">
          <mxGeometry x="670" y="-150" width="120" height="40" as="geometry" />
        </mxCell>
        <mxCell id="C9Z1ZDKZKIPc8T6fknlQ-75" value="DROP COLUMN&lt;div&gt;nombre_columna&lt;/div&gt;" style="rounded=1;whiteSpace=wrap;html=1;fontSize=12;glass=0;strokeWidth=1;shadow=0;" vertex="1" parent="WIyWlLk6GJQsqaUBKTNV-1">
          <mxGeometry x="670" y="-270" width="120" height="40" as="geometry" />
        </mxCell>
        <mxCell id="C9Z1ZDKZKIPc8T6fknlQ-76" value="" style="rounded=0;html=1;jettySize=auto;orthogonalLoop=1;fontSize=11;endArrow=block;endFill=0;endSize=8;strokeWidth=1;shadow=0;labelBackgroundColor=none;entryX=0.5;entryY=1;entryDx=0;entryDy=0;exitX=0.5;exitY=0;exitDx=0;exitDy=0;" edge="1" parent="WIyWlLk6GJQsqaUBKTNV-1" source="C9Z1ZDKZKIPc8T6fknlQ-84" target="C9Z1ZDKZKIPc8T6fknlQ-74">
          <mxGeometry y="10" relative="1" as="geometry">
            <mxPoint as="offset" />
            <mxPoint x="620" y="-154.07" as="sourcePoint" />
            <mxPoint x="630" y="-270.07" as="targetPoint" />
          </mxGeometry>
        </mxCell>
        <mxCell id="C9Z1ZDKZKIPc8T6fknlQ-78" value="Si" style="text;html=1;align=center;verticalAlign=middle;resizable=0;points=[];autosize=1;strokeColor=none;fillColor=none;fontSize=16;" vertex="1" parent="WIyWlLk6GJQsqaUBKTNV-1">
          <mxGeometry x="720" y="-80" width="40" height="30" as="geometry" />
        </mxCell>
        <mxCell id="C9Z1ZDKZKIPc8T6fknlQ-80" value="La columna no existe" style="rounded=1;whiteSpace=wrap;html=1;fontSize=12;glass=0;strokeWidth=1;shadow=0;" vertex="1" parent="WIyWlLk6GJQsqaUBKTNV-1">
          <mxGeometry x="850" y="-30" width="120" height="40" as="geometry" />
        </mxCell>
        <mxCell id="C9Z1ZDKZKIPc8T6fknlQ-81" value="No" style="text;html=1;align=center;verticalAlign=middle;resizable=0;points=[];autosize=1;strokeColor=none;fillColor=none;fontSize=16;" vertex="1" parent="WIyWlLk6GJQsqaUBKTNV-1">
          <mxGeometry x="770" y="-40" width="40" height="30" as="geometry" />
        </mxCell>
        <mxCell id="C9Z1ZDKZKIPc8T6fknlQ-82" style="edgeStyle=none;curved=1;rounded=0;orthogonalLoop=1;jettySize=auto;html=1;exitX=0.5;exitY=1;exitDx=0;exitDy=0;fontSize=12;startSize=8;endSize=8;" edge="1" parent="WIyWlLk6GJQsqaUBKTNV-1" source="C9Z1ZDKZKIPc8T6fknlQ-80" target="C9Z1ZDKZKIPc8T6fknlQ-80">
          <mxGeometry relative="1" as="geometry" />
        </mxCell>
        <mxCell id="C9Z1ZDKZKIPc8T6fknlQ-83" value="" style="edgeStyle=orthogonalEdgeStyle;rounded=0;html=1;jettySize=auto;orthogonalLoop=1;fontSize=11;endArrow=block;endFill=0;endSize=8;strokeWidth=1;shadow=0;labelBackgroundColor=none;exitX=1;exitY=0.5;exitDx=0;exitDy=0;entryX=0;entryY=0.5;entryDx=0;entryDy=0;" edge="1" parent="WIyWlLk6GJQsqaUBKTNV-1" target="C9Z1ZDKZKIPc8T6fknlQ-84">
          <mxGeometry y="10" relative="1" as="geometry">
            <mxPoint as="offset" />
            <mxPoint x="570" y="-10" as="sourcePoint" />
            <mxPoint x="660" y="-10" as="targetPoint" />
          </mxGeometry>
        </mxCell>
        <mxCell id="C9Z1ZDKZKIPc8T6fknlQ-84" value="La columna existe?" style="rhombus;whiteSpace=wrap;html=1;shadow=0;fontFamily=Helvetica;fontSize=12;align=center;strokeWidth=1;spacing=6;spacingTop=-4;" vertex="1" parent="WIyWlLk6GJQsqaUBKTNV-1">
          <mxGeometry x="680" y="-50" width="100" height="80" as="geometry" />
        </mxCell>
        <mxCell id="C9Z1ZDKZKIPc8T6fknlQ-85" value="" style="edgeStyle=orthogonalEdgeStyle;rounded=0;html=1;jettySize=auto;orthogonalLoop=1;fontSize=11;endArrow=block;endFill=0;endSize=8;strokeWidth=1;shadow=0;labelBackgroundColor=none;exitX=1;exitY=0.5;exitDx=0;exitDy=0;entryX=0;entryY=0.5;entryDx=0;entryDy=0;" edge="1" parent="WIyWlLk6GJQsqaUBKTNV-1" source="C9Z1ZDKZKIPc8T6fknlQ-84" target="C9Z1ZDKZKIPc8T6fknlQ-80">
          <mxGeometry y="10" relative="1" as="geometry">
            <mxPoint as="offset" />
            <mxPoint x="580" as="sourcePoint" />
            <mxPoint x="840" y="-10" as="targetPoint" />
          </mxGeometry>
        </mxCell>
        <mxCell id="C9Z1ZDKZKIPc8T6fknlQ-86" value="" style="rounded=0;html=1;jettySize=auto;orthogonalLoop=1;fontSize=11;endArrow=block;endFill=0;endSize=8;strokeWidth=1;shadow=0;labelBackgroundColor=none;entryX=0.5;entryY=1;entryDx=0;entryDy=0;exitX=0.5;exitY=0;exitDx=0;exitDy=0;" edge="1" parent="WIyWlLk6GJQsqaUBKTNV-1" source="C9Z1ZDKZKIPc8T6fknlQ-74" target="C9Z1ZDKZKIPc8T6fknlQ-75">
          <mxGeometry y="10" relative="1" as="geometry">
            <mxPoint as="offset" />
            <mxPoint x="740" y="-40" as="sourcePoint" />
            <mxPoint x="740" y="-100" as="targetPoint" />
          </mxGeometry>
        </mxCell>
        <mxCell id="C9Z1ZDKZKIPc8T6fknlQ-89" value="Columna agregada&lt;div&gt;correctamente&lt;/div&gt;" style="rounded=1;whiteSpace=wrap;html=1;fontSize=12;glass=0;strokeWidth=1;shadow=0;" vertex="1" parent="WIyWlLk6GJQsqaUBKTNV-1">
          <mxGeometry x="250" y="490" width="120" height="40" as="geometry" />
        </mxCell>
        <mxCell id="C9Z1ZDKZKIPc8T6fknlQ-90" value="" style="edgeStyle=orthogonalEdgeStyle;rounded=0;html=1;jettySize=auto;orthogonalLoop=1;fontSize=11;endArrow=block;endFill=0;endSize=8;strokeWidth=1;shadow=0;labelBackgroundColor=none;entryX=1;entryY=0.5;entryDx=0;entryDy=0;exitX=0.5;exitY=1;exitDx=0;exitDy=0;" edge="1" parent="WIyWlLk6GJQsqaUBKTNV-1" source="C9Z1ZDKZKIPc8T6fknlQ-8" target="C9Z1ZDKZKIPc8T6fknlQ-89">
          <mxGeometry y="10" relative="1" as="geometry">
            <mxPoint as="offset" />
            <mxPoint x="410" y="600" as="sourcePoint" />
            <mxPoint x="400" y="435" as="targetPoint" />
            <Array as="points">
              <mxPoint x="390" y="510" />
            </Array>
          </mxGeometry>
        </mxCell>
      </root>
    </mxGraphModel>
  </diagram>
</mxfile>
